<svg id="bold" enable-background="new 0 0 24 24" height="512" viewBox="0 0 24 24" width="512" xmlns="http://www.w3.org/2000/svg"><path d="m9 0c-2.757 0-5 2.243-5 5s2.243 5 5 5 5-2.243 5-5-2.243-5-5-5z"/><path d="m16.582 23.98c-.404-.093-.655-.495-.563-.899l1.5-6.5c.094-.403.497-.658.899-.562.404.093.655.495.563.899l-1.5 6.5c-.095.414-.51.657-.899.562z"/><path d="m20.75 23c-.205 0-.409-.084-.558-.248-.277-.309-.252-.782.056-1.06l1.881-1.692-1.881-1.692c-.308-.277-.333-.751-.056-1.06.278-.308.752-.332 1.06-.056l2.5 2.25c.158.143.248.345.248.558s-.09.415-.248.558l-2.5 2.25c-.144.129-.323.192-.502.192z"/><path d="m14.25 23c-.179 0-.358-.063-.502-.192l-2.5-2.25c-.158-.143-.248-.345-.248-.558s.09-.415.248-.558l2.5-2.25c.308-.276.782-.251 1.06.056.277.309.252.782-.056 1.06l-1.881 1.692 1.881 1.692c.308.277.333.751.056 1.06-.149.164-.353.248-.558.248z"/><path d="m9.25 20c0-.776.331-1.521.907-2.041l2.503-2.253c.508-.456 1.16-.705 1.839-.705.563 0 1.107.178 1.564.493.34-.665.932-1.157 1.639-1.372-.853-1.278-2.305-2.122-3.952-2.122h-9c-2.619 0-4.75 2.131-4.75 4.75v4c0 .414.336.75.75.75h8.958c-.29-.444-.458-.962-.458-1.5z"/></svg>